<svg 
  viewBox="0 0 24 24" 
  fill="currentColor" 
  xmlns="http://www.w3.org/2000/svg"
>
  <path d="M4 17C4 18.1046 4.89543 19 6 19H7C7.55228 19 8 18.5523 8 18V17H16V18C16 18.5523 16.4477 19 17 19H18C19.1046 19 20 18.1046 20 17V10.25C20.412 10.093 20.7819 9.84653 21.0858 9.52985C21.7323 8.8524 21.6983 7.82843 21.0024 7.18239L19.5299 5.81761C19.083 5.40547 18.4419 5.17646 17.7799 5.20002L17 5.21667V5C17 4.44772 16.5523 4 16 4H8C7.44772 4 7 4.44772 7 5V5.21667L6.22015 5.20002C5.55811 5.17646 4.91697 5.40547 4.47015 5.81761L2.99762 7.18239C2.30168 7.82843 2.26773 8.8524 2.91421 9.52985C3.21811 9.84653 3.58798 10.093 4 10.25V17Z" />
  <path fill-rule="evenodd" clip-rule="evenodd" d="M5 15C5 14.4477 5.44772 14 6 14H18C18.5523 14 19 14.4477 19 15V16H5V15Z" fill="white" opacity="0.6"/>
  <rect x="8" y="7" width="3" height="4" rx="1" fill="white" opacity="0.8" />
  <rect x="13" y="7" width="3" height="4" rx="1" fill="white" opacity="0.8"/>
</svg>
